REM DIRINDEX 1\2\4,1\2\5,1\2\6,1\3\7,1\3\8
REM DIRNAME cjc128,folder01,folder02,folder03,folder04,folder05,folder06,folder07
TITLE ""
FILE "009_Lesson 07_Output_Stage.mp3" MP3
  TRACK 01 AUDIO
    TITLE "0:"
    INDEX 01 00:00:00
  TRACK 02 AUDIO
    TITLE "6:cjc128_0430"
    INDEX 01 00:00:07
  TRACK 03 AUDIO
    TITLE "0:"
    INDEX 01 00:02:71
  TRACK 04 AUDIO
    TITLE "6:cjc128_0431"
    INDEX 01 00:03:41
  TRACK 05 AUDIO
    TITLE "0:"
    INDEX 01 00:05:36
  TRACK 06 AUDIO
    TITLE "4:cjc128_0432"
    INDEX 01 00:06:20
  TRACK 07 AUDIO
    TITLE "0:"
    INDEX 01 00:08:62
  TRACK 08 AUDIO
    TITLE "5:cjc128_0433"
    INDEX 01 00:11:15
  TRACK 09 AUDIO
    TITLE "0:"
    INDEX 01 00:13:06
  TRACK 10 AUDIO
    TITLE "6:cjc128_0434"
    INDEX 01 00:13:59
  TRACK 11 AUDIO
    TITLE "0:"
    INDEX 01 00:15:52
  TRACK 12 AUDIO
    TITLE "4:cjc128_0435"
    INDEX 01 00:16:22
  TRACK 13 AUDIO
    TITLE "0:"
    INDEX 01 00:19:30
  TRACK 14 AUDIO
    TITLE "5:cjc128_0436"
    INDEX 01 00:21:55
  TRACK 15 AUDIO
    TITLE "0:"
    INDEX 01 00:23:53
  TRACK 16 AUDIO
    TITLE "6:cjc128_0437"
    INDEX 01 00:24:31
  TRACK 17 AUDIO
    TITLE "0:"
    INDEX 01 00:26:28
  TRACK 18 AUDIO
    TITLE "4:cjc128_0438"
    INDEX 01 00:27:12
  TRACK 19 AUDIO
    TITLE "0:"
    INDEX 01 00:30:69
  TRACK 20 AUDIO
    TITLE "5:cjc128_0439"
    INDEX 01 00:33:58
  TRACK 21 AUDIO
    TITLE "0:"
    INDEX 01 00:36:03
  TRACK 22 AUDIO
    TITLE "6:cjc128_0440"
    INDEX 01 00:36:68
  TRACK 23 AUDIO
    TITLE "0:"
    INDEX 01 00:38:69
  TRACK 24 AUDIO
    TITLE "4:cjc128_0441"
    INDEX 01 00:39:51
  TRACK 25 AUDIO
    TITLE "0:"
    INDEX 01 00:41:57
  TRACK 26 AUDIO
    TITLE "5:cjc128_0442"
    INDEX 01 00:44:07
  TRACK 27 AUDIO
    TITLE "0:"
    INDEX 01 00:46:02
  TRACK 28 AUDIO
    TITLE "6:cjc128_0443"
    INDEX 01 00:46:58
  TRACK 29 AUDIO
    TITLE "0:"
    INDEX 01 00:48:63
  TRACK 30 AUDIO
    TITLE "4:cjc128_0444"
    INDEX 01 00:49:37
  TRACK 31 AUDIO
    TITLE "0:"
    INDEX 01 00:52:39
  TRACK 32 AUDIO
    TITLE "5:cjc128_0445"
    INDEX 01 00:55:46
  TRACK 33 AUDIO
    TITLE "0:"
    INDEX 01 00:58:28
  TRACK 34 AUDIO
    TITLE "6:cjc128_0446"
    INDEX 01 00:59:04
  TRACK 35 AUDIO
    TITLE "0:"
    INDEX 01 01:01:01
  TRACK 36 AUDIO
    TITLE "4:cjc128_0447"
    INDEX 01 01:01:66
  TRACK 37 AUDIO
    TITLE "0:"
    INDEX 01 01:03:41
  TRACK 38 AUDIO
    TITLE "5:cjc128_0448"
    INDEX 01 01:06:02
  TRACK 39 AUDIO
    TITLE "0:"
    INDEX 01 01:08:03
  TRACK 40 AUDIO
    TITLE "6:cjc128_0449"
    INDEX 01 01:08:64
  TRACK 41 AUDIO
    TITLE "0:"
    INDEX 01 01:10:63
  TRACK 42 AUDIO
    TITLE "4:cjc128_0450"
    INDEX 01 01:11:41
  TRACK 43 AUDIO
    TITLE "0:"
    INDEX 01 01:15:19
  TRACK 44 AUDIO
    TITLE "5:cjc128_0451"
    INDEX 01 01:18:56
  TRACK 45 AUDIO
    TITLE "0:"
    INDEX 01 01:21:72
  TRACK 46 AUDIO
    TITLE "6:cjc128_0452"
    INDEX 01 01:22:50
  TRACK 47 AUDIO
    TITLE "0:"
    INDEX 01 01:24:43
  TRACK 48 AUDIO
    TITLE "4:cjc128_0453"
    INDEX 01 01:25:19
  TRACK 49 AUDIO
    TITLE "0:"
    INDEX 01 01:29:07
  TRACK 50 AUDIO
    TITLE "5:cjc128_0454"
    INDEX 01 01:32:35
  TRACK 51 AUDIO
    TITLE "0:"
    INDEX 01 01:35:29
  TRACK 52 AUDIO
    TITLE "6:cjc128_0455"
    INDEX 01 01:36:07
  TRACK 53 AUDIO
    TITLE "0:"
    INDEX 01 01:38:12
  TRACK 54 AUDIO
    TITLE "4:cjc128_0456"
    INDEX 01 01:38:65
  TRACK 55 AUDIO
    TITLE "0:"
    INDEX 01 01:41:14
  TRACK 56 AUDIO
    TITLE "5:cjc128_0457"
    INDEX 01 01:43:60
  TRACK 57 AUDIO
    TITLE "0:"
    INDEX 01 01:45:67
  TRACK 58 AUDIO
    TITLE "6:cjc128_0458"
    INDEX 01 01:46:47
  TRACK 59 AUDIO
    TITLE "0:"
    INDEX 01 01:48:18
  TRACK 60 AUDIO
    TITLE "4:cjc128_0459"
    INDEX 01 01:49:02
  TRACK 61 AUDIO
    TITLE "0:"
    INDEX 01 01:51:50
  TRACK 62 AUDIO
    TITLE "5:cjc128_0460"
    INDEX 01 01:54:11
  TRACK 63 AUDIO
    TITLE "0:"
    INDEX 01 01:56:18
  TRACK 64 AUDIO
    TITLE "6:cjc128_0461"
    INDEX 01 01:56:71
  TRACK 65 AUDIO
    TITLE "0:"
    INDEX 01 01:58:70
  TRACK 66 AUDIO
    TITLE "4:cjc128_0462"
    INDEX 01 01:59:50
  TRACK 67 AUDIO
    TITLE "0:"
    INDEX 01 02:02:48
  TRACK 68 AUDIO
    TITLE "5:cjc128_0463"
    INDEX 01 02:05:19
  TRACK 69 AUDIO
    TITLE "0:"
    INDEX 01 02:07:31
  TRACK 70 AUDIO
    TITLE "6:cjc128_0464"
    INDEX 01 02:08:13
  TRACK 71 AUDIO
    TITLE "0:"
    INDEX 01 02:10:08
  TRACK 72 AUDIO
    TITLE "4:cjc128_0465"
    INDEX 01 02:10:67
  TRACK 73 AUDIO
    TITLE "0:"
    INDEX 01 02:14:00
  TRACK 74 AUDIO
    TITLE "5:cjc128_0466"
    INDEX 01 02:16:44
  TRACK 75 AUDIO
    TITLE "0:"
    INDEX 01 02:18:51
  TRACK 76 AUDIO
    TITLE "6:cjc128_0467"
    INDEX 01 02:19:25
  TRACK 77 AUDIO
    TITLE "0:"
    INDEX 01 02:21:22
  TRACK 78 AUDIO
    TITLE "4:cjc128_0468"
    INDEX 01 02:22:04
  TRACK 79 AUDIO
    TITLE "0:"
    INDEX 01 02:24:06
  TRACK 80 AUDIO
    TITLE "5:cjc128_0469"
    INDEX 01 02:26:39
  TRACK 81 AUDIO
    TITLE "0:"
    INDEX 01 02:28:34
  TRACK 82 AUDIO
    TITLE "6:cjc128_0470"
    INDEX 01 02:29:06
  TRACK 83 AUDIO
    TITLE "0:"
    INDEX 01 02:31:03
  TRACK 84 AUDIO
    TITLE "4:cjc128_0471"
    INDEX 01 02:31:59
  TRACK 85 AUDIO
    TITLE "0:"
    INDEX 01 02:34:56
  TRACK 86 AUDIO
    TITLE "5:cjc128_0472"
    INDEX 01 02:37:34
  TRACK 87 AUDIO
    TITLE "0:"
    INDEX 01 02:39:63
  TRACK 88 AUDIO
    TITLE "6:cjc128_0473"
    INDEX 01 02:40:43
  TRACK 89 AUDIO
    TITLE "0:"
    INDEX 01 02:42:47
  TRACK 90 AUDIO
    TITLE "4:cjc128_0474"
    INDEX 01 02:43:21
  TRACK 91 AUDIO
    TITLE "0:"
    INDEX 01 02:46:02
  TRACK 92 AUDIO
    TITLE "5:cjc128_0475"
    INDEX 01 02:48:36
  TRACK 93 AUDIO
    TITLE "0:"
    INDEX 01 02:50:43
  TRACK 94 AUDIO
    TITLE "6:cjc128_0476"
    INDEX 01 02:51:25
  TRACK 95 AUDIO
    TITLE "0:"
    INDEX 01 02:53:24
  TRACK 96 AUDIO
    TITLE "4:cjc128_0477"
    INDEX 01 02:54:04
  TRACK 97 AUDIO
    TITLE "0:"
    INDEX 01 02:56:18
  TRACK 98 AUDIO
    TITLE "5:cjc128_0478"
    INDEX 01 02:58:62
  TRACK 99 AUDIO
    TITLE "0:"
    INDEX 01 03:00:57
  TRACK 100 AUDIO
    TITLE "6:cjc128_0479"
    INDEX 01 03:01:39
  TRACK 101 AUDIO
    TITLE "0:"
    INDEX 01 03:03:34
  TRACK 102 AUDIO
    TITLE "4:cjc128_0480"
    INDEX 01 03:04:18
  TRACK 103 AUDIO
    TITLE "0:"
    INDEX 01 03:06:42
  TRACK 104 AUDIO
    TITLE "5:cjc128_0481"
    INDEX 01 03:08:37
  TRACK 105 AUDIO
    TITLE "0:"
    INDEX 01 03:09:72
  TRACK 106 AUDIO
    TITLE "6:cjc128_0482"
    INDEX 01 03:10:50
  TRACK 107 AUDIO
    TITLE "0:"
    INDEX 01 03:12:39
  TRACK 108 AUDIO
    TITLE "4:cjc128_0483"
    INDEX 01 03:13:21
  TRACK 109 AUDIO
    TITLE "0:"
    INDEX 01 03:15:63
  TRACK 110 AUDIO
    TITLE "5:cjc128_0484"
    INDEX 01 03:17:73
  TRACK 111 AUDIO
    TITLE "0:"
    INDEX 01 03:19:54
  TRACK 112 AUDIO
    TITLE "6:cjc128_0485"
    INDEX 01 03:20:26
  TRACK 113 AUDIO
    TITLE "0:"
    INDEX 01 03:22:23
  TRACK 114 AUDIO
    TITLE "4:cjc128_0486"
    INDEX 01 03:22:70
  TRACK 115 AUDIO
    TITLE "0:"
    INDEX 01 03:25:24
  TRACK 116 AUDIO
    TITLE "5:cjc128_0487"
    INDEX 01 03:27:58
  TRACK 117 AUDIO
    TITLE "0:"
    INDEX 01 03:29:55
  TRACK 118 AUDIO
    TITLE "6:cjc128_0488"
    INDEX 01 03:30:37
  TRACK 119 AUDIO
    TITLE "0:"
    INDEX 01 03:32:10
  TRACK 120 AUDIO
    TITLE "4:cjc128_0489"
    INDEX 01 03:32:73
  TRACK 121 AUDIO
    TITLE "0:"
    INDEX 01 03:35:51
  TRACK 122 AUDIO
    TITLE "5:cjc128_0490"
    INDEX 01 03:38:32
  TRACK 123 AUDIO
    TITLE "0:"
    INDEX 01 03:40:57
  TRACK 124 AUDIO
    TITLE "6:cjc128_0491"
    INDEX 01 03:41:33
  TRACK 125 AUDIO
    TITLE "0:"
    INDEX 01 03:43:27
  TRACK 126 AUDIO
    TITLE "4:cjc128_0492"
    INDEX 01 03:44:09
  TRACK 127 AUDIO
    TITLE "0:"
    INDEX 01 03:47:08
  TRACK 128 AUDIO
    TITLE "5:cjc128_0493"
    INDEX 01 03:50:20
  TRACK 129 AUDIO
    TITLE "0:"
    INDEX 01 03:52:73
  TRACK 130 AUDIO
    TITLE "6:cjc128_0494"
    INDEX 01 03:53:55
  TRACK 131 AUDIO
    TITLE "0:"
    INDEX 01 03:55:50
  TRACK 132 AUDIO
    TITLE "4:cjc128_0495"
    INDEX 01 03:56:34
  TRACK 133 AUDIO
    TITLE "0:"
    INDEX 01 03:58:00
  TRACK 134 AUDIO
    TITLE "5:cjc128_0496"
    INDEX 01 04:00:30
  TRACK 135 AUDIO
    TITLE "0:"
    INDEX 01 04:02:23
  TRACK 136 AUDIO
    TITLE "6:cjc128_0497"
    INDEX 01 04:03:01
  TRACK 137 AUDIO
    TITLE "0:"
    INDEX 01 04:04:71
  TRACK 138 AUDIO
    TITLE "4:cjc128_0498"
    INDEX 01 04:05:55
  TRACK 139 AUDIO
    TITLE "0:"
    INDEX 01 04:08:00
  TRACK 140 AUDIO
    TITLE "5:cjc128_0499"
    INDEX 01 04:10:48
  TRACK 141 AUDIO
    TITLE "0:"
    INDEX 01 04:12:59
  TRACK 142 AUDIO
    TITLE "6:cjc128_0500"
    INDEX 01 04:13:42
  TRACK 143 AUDIO
    TITLE "0:"
    INDEX 01 04:15:39
  TRACK 144 AUDIO
    TITLE "4:cjc128_0501"
    INDEX 01 04:16:21
  TRACK 145 AUDIO
    TITLE "0:"
    INDEX 01 04:18:57
  TRACK 146 AUDIO
    TITLE "5:cjc128_0502"
    INDEX 01 04:21:10
  TRACK 147 AUDIO
    TITLE "0:"
    INDEX 01 04:22:73
  TRACK 148 AUDIO
    TITLE "6:cjc128_0503"
    INDEX 01 04:23:47
  TRACK 149 AUDIO
    TITLE "0:"
    INDEX 01 04:25:59
  TRACK 150 AUDIO
    TITLE "4:cjc128_0504"
    INDEX 01 04:26:37
  TRACK 151 AUDIO
    TITLE "0:"
    INDEX 01 04:29:45
  TRACK 152 AUDIO
    TITLE "5:cjc128_0505"
    INDEX 01 04:33:08
  TRACK 153 AUDIO
    TITLE "0:"
    INDEX 01 04:36:14
  TRACK 154 AUDIO
    TITLE "6:cjc128_0506"
    INDEX 01 04:36:73
  TRACK 155 AUDIO
    TITLE "0:"
    INDEX 01 04:38:72
  TRACK 156 AUDIO
    TITLE "4:cjc128_0507"
    INDEX 01 04:39:59
  TRACK 157 AUDIO
    TITLE "0:"
    INDEX 01 04:42:26
  TRACK 158 AUDIO
    TITLE "5:cjc128_0508"
    INDEX 01 04:44:59
  TRACK 159 AUDIO
    TITLE "0:"
    INDEX 01 04:46:63
  TRACK 160 AUDIO
    TITLE "6:cjc128_0509"
    INDEX 01 04:47:39
  TRACK 161 AUDIO
    TITLE "0:"
    INDEX 01 04:49:34
  TRACK 162 AUDIO
    TITLE "4:cjc128_0510"
    INDEX 01 04:50:20
  TRACK 163 AUDIO
    TITLE "0:"
    INDEX 01 04:53:40
  TRACK 164 AUDIO
    TITLE "5:cjc128_0511"
    INDEX 01 04:56:34
  TRACK 165 AUDIO
    TITLE "0:"
    INDEX 01 04:58:70
